# xmcd
# 
# Track frame offsets:
#     150
#     9817
#     22025
#     35197
#     46377
#     56007
#     65887
#     78075
#     89442
#     101975
#     114877
#     126592
#     138825
#     152217
#     168237
# 
# Disc length: 2457
# 
# Revision: 5
# Processed by: cddbd v1.5.2PL0 Copyright (c) Steve Scherf et al.
# Submitted via: fre:ac v1.0.27
# 
DISCID=ca09970f
DTITLE=Various Artist - Treasury of Bluegrass Vol. 1 Disc 1
DYEAR=2000
DGENRE=Bluegrass
TTITLE0=Blue Moon of Kentucky
TTITLE1=Foggy Mountain Breakdown
TTITLE2=You Don't Know My Mind
TTITLE3=Don't Let Your Sweet Love Die
TTITLE4=How Mountain Girls Can Love
TTITLE5=Jimmy Brown the Newsboy
TTITLE6=Footprints in the Snow
TTITLE7=Cabin on the Hill
TTITLE8=Little Maggie
TTITLE9=High on a Mountain
TTITLE10=Fox on the Run
TTITLE11=Orange Blossom Special
TTITLE12=Legend of the Rebel Soldier
TTITLE13=Smokey Mountain Memories
TTITLE14=Two Highways
EXTD=Time Life YEAR: 2000
EXTT0=
EXTT1=
EXTT2=
EXTT3=
EXTT4=
EXTT5=
EXTT6=
EXTT7=
EXTT8=
EXTT9=
EXTT10=
EXTT11=
EXTT12=
EXTT13=
EXTT14=
PLAYORDER=
